<svg width="200" height="80" viewBox="0 0 200 80" xmlns="http://www.w3.org/2000/svg">
  <!-- Map outline representing Anand/Gujarat -->
  <path d="M10 20 Q30 15 50 25 L65 20 Q75 25 80 35 L85 45 Q80 55 70 60 L55 65 Q35 60 20 55 L15 45 Q10 35 10 20 Z" 
        fill="#F75768" stroke="#07546B" stroke-width="2"/>
  
  <!-- Road/path through the map -->
  <path d="M25 30 Q40 35 55 30 Q65 25 75 35" 
        fill="none" stroke="#CFD1D1" stroke-width="3" stroke-linecap="round"/>
  
  <!-- Location pin -->
  <circle cx="50" cy="35" r="6" fill="#FB6957"/>
  <circle cx="50" cy="32" r="3" fill="white"/>
  
  <!-- Text: SAANCHARI -->
  <text x="100" y="35" font-family="Arial, sans-serif" font-size="24" font-weight="bold" fill="#07546B">
    SAANCHARI
  </text>
  
  <!-- Pin icon in the 'A' of SAANCHARI -->
  <circle cx="110" cy="25" r="4" fill="#F75768"/>
  <circle cx="110" cy="23" r="2" fill="white"/>
  
  <!-- Tagline -->
  <text x="100" y="55" font-family="Arial, sans-serif" font-size="12" fill="#FB6957">
    YOUR TRAVEL COMPANION
  </text>
  
  <!-- Decorative elements -->
  <circle cx="20" cy="25" r="2" fill="#FB6957" opacity="0.6"/>
  <circle cx="75" cy="50" r="1.5" fill="#F75768" opacity="0.8"/>
  <circle cx="30" cy="50" r="1" fill="#07546B" opacity="0.5"/>
</svg>
